<svg xmlns="http://www.w3.org/2000/svg" xmlns:xlink="http://www.w3.org/1999/xlink" viewBox="0 0 128 128" fill="#5B5B5B">
  <path d="M117.75977 21.128906C117.36914 21.138281 116.97461 21.225391 116.59961 21.400391L103.69922 27.199219C102.19922 27.899219 101.49922 29.699219 102.19922 31.199219C102.89922 32.699219 104.69922 33.399219 106.19922 32.699219L112.5 29.900391C93.1 78.300391 55.3 106 8 106L4 106C2.3 106 1 107.3 1 109C1 110.7 2.3 112 4 112L8 112C58 112 97.799219 82.9 118.19922 32L121 38.300781C121.5 39.400781 122.59922 40.099609 123.69922 40.099609C124.09922 40.099609 124.50039 40.000781 124.90039 39.800781C126.40039 39.100781 127.10039 37.300781 126.40039 35.800781L120.59961 22.900391C120.07461 21.775391 118.93164 21.100781 117.75977 21.128906 z M 124 51C122.3 51 121 52.3 121 54L121 121L4 121C2.3 121 1 122.3 1 124C1 125.7 2.3 127 4 127L124 127C125.7 127 127 125.7 127 124L127 54C127 52.3 125.7 51 124 51 z M 109 71C107.3 71 106 72.3 106 74L106 114C106 115.7 107.3 117 109 117C110.7 117 112 115.7 112 114L112 74C112 72.3 110.7 71 109 71 z M 94 91C92.3 91 91 92.3 91 94L91 114C91 115.7 92.3 117 94 117C95.7 117 97 115.7 97 114L97 94C97 92.3 95.7 91 94 91 z M 79 101C77.3 101 76 102.3 76 104L76 114C76 115.7 77.3 117 79 117C80.7 117 82 115.7 82 114L82 104C82 102.3 80.7 101 79 101 z M 64 110.97461C63.225 110.97461 62.450391 111.25078 61.900391 111.80078C61.800391 111.90078 61.6 112.10078 61.5 112.30078C61.4 112.50078 61.299219 112.60078 61.199219 112.80078C61.099219 113.00078 61.1 113.20039 61 113.40039C61 113.60039 60.900391 113.8 60.900391 114C60.900391 114.8 61.200781 115.59961 61.800781 116.09961L62.199219 116.5C62.399219 116.6 62.499219 116.70078 62.699219 116.80078C62.899219 116.90078 63.100781 116.9 63.300781 117C63.500781 117 63.700391 117.09961 63.900391 117.09961C64.700391 117.09961 65.5 116.79922 66 116.19922C66.6 115.59922 66.900391 114.89961 66.900391 114.09961C66.900391 113.89961 66.900781 113.7 66.800781 113.5C66.800781 113.3 66.699609 113.10039 66.599609 112.90039C66.699609 112.70039 66.6 112.50078 66.5 112.30078C66.4 112.10078 66.299609 112.00078 66.099609 111.80078C65.549609 111.25078 64.775 110.97461 64 110.97461 z" fill="#5B5B5B" />
</svg>