<svg xmlns="http://www.w3.org/2000/svg" xmlns:xlink="http://www.w3.org/1999/xlink" viewBox="0 0 50 50" fill="#5B5B5B">
  <path d="M12.992188 3 A 1.0001 1.0001 0 0 0 12.029297 4L12.029297 26L10.029297 26C7.8338422 26 6.0292969 27.804545 6.0292969 30L6.0292969 46 A 1.0001 1.0001 0 1 0 8.0292969 46L8.0292969 30C8.0292969 28.895455 8.9247513 28 10.029297 28L12.029297 28L12.029297 30C10.924297 30 10.029297 30.895 10.029297 32C10.029297 33.105 10.924297 34 12.029297 34L38.029297 34C39.134297 34 40.029297 33.105 40.029297 32C40.029297 30.895 39.134297 30 38.029297 30L38.029297 28L40.029297 28C41.133842 28 42.029297 28.895455 42.029297 30L42.029297 46 A 1.0001 1.0001 0 1 0 44.029297 46L44.029297 30C44.029297 27.804545 42.224751 26 40.029297 26L38.029297 26L38.029297 4 A 1.0001 1.0001 0 0 0 36.582031 3.1054688L35.029297 3.8828125L33.476562 3.1054688 A 1.0001 1.0001 0 0 0 32.582031 3.1054688L31.029297 3.8828125L29.476562 3.1054688 A 1.0001 1.0001 0 0 0 28.582031 3.1054688L27.029297 3.8828125L25.476562 3.1054688 A 1.0001 1.0001 0 0 0 24.582031 3.1054688L23.029297 3.8828125L21.476562 3.1054688 A 1.0001 1.0001 0 0 0 20.582031 3.1054688L19.029297 3.8828125L17.476562 3.1054688 A 1.0001 1.0001 0 0 0 16.582031 3.1054688L15.029297 3.8828125L13.476562 3.1054688 A 1.0001 1.0001 0 0 0 12.992188 3 z M 17.029297 5.1171875L18.582031 5.8945312 A 1.0001 1.0001 0 0 0 19.476562 5.8945312L21.029297 5.1171875L22.582031 5.8945312 A 1.0001 1.0001 0 0 0 23.476562 5.8945312L25.029297 5.1171875L26.582031 5.8945312 A 1.0001 1.0001 0 0 0 27.476562 5.8945312L29.029297 5.1171875L30.582031 5.8945312 A 1.0001 1.0001 0 0 0 31.476562 5.8945312L33.029297 5.1171875L34.582031 5.8945312 A 1.0001 1.0001 0 0 0 35.476562 5.8945312L36.029297 5.6171875L36.029297 26.832031 A 1.0001 1.0001 0 0 0 36.029297 27.158203L36.029297 32L14.029297 32L14.029297 27.167969 A 1.0001 1.0001 0 0 0 14.029297 26.841797L14.029297 5.6171875L14.582031 5.8945312 A 1.0001 1.0001 0 0 0 15.476562 5.8945312L17.029297 5.1171875 z M 31.980469 13.990234 A 1.0001 1.0001 0 0 0 31.292969 14.292969L23 22.585938L18.707031 18.292969 A 1.0001 1.0001 0 1 0 17.292969 19.707031L22.292969 24.707031 A 1.0001 1.0001 0 0 0 23.707031 24.707031L32.707031 15.707031 A 1.0001 1.0001 0 0 0 31.980469 13.990234 z M 12.029297 37C11.477297 37 11.029297 37.448 11.029297 38L11.029297 40C11.029297 40.552 11.477297 41 12.029297 41L18.029297 41C18.582297 41 19.029297 40.552 19.029297 40L19.029297 38C19.029297 37.448 18.581297 37 18.029297 37L12.029297 37 z M 22.029297 37C21.477297 37 21.029297 37.448 21.029297 38L21.029297 40C21.029297 40.552 21.477297 41 22.029297 41L28.029297 41C28.582297 41 29.029297 40.552 29.029297 40L29.029297 38C29.029297 37.448 28.581297 37 28.029297 37L22.029297 37 z M 32.029297 37C31.477297 37 31.029297 37.448 31.029297 38L31.029297 40C31.029297 40.552 31.477297 41 32.029297 41L38.029297 41C38.582297 41 39.029297 40.552 39.029297 40L39.029297 38C39.029297 37.448 38.581297 37 38.029297 37L32.029297 37 z M 12.029297 43C11.477297 43 11.029297 43.448 11.029297 44L11.029297 46C11.029297 46.552 11.477297 47 12.029297 47L18.029297 47C18.582297 47 19.029297 46.552 19.029297 46L19.029297 44C19.029297 43.448 18.581297 43 18.029297 43L12.029297 43 z M 22.029297 43C21.477297 43 21.029297 43.448 21.029297 44L21.029297 46C21.029297 46.552 21.477297 47 22.029297 47L28.029297 47C28.582297 47 29.029297 46.552 29.029297 46L29.029297 44C29.029297 43.448 28.581297 43 28.029297 43L22.029297 43 z M 32.029297 43C31.477297 43 31.029297 43.448 31.029297 44L31.029297 46C31.029297 46.552 31.477297 47 32.029297 47L38.029297 47C38.582297 47 39.029297 46.552 39.029297 46L39.029297 44C39.029297 43.448 38.581297 43 38.029297 43L32.029297 43 z" fill="#5B5B5B" />
</svg>