<svg xmlns="http://www.w3.org/2000/svg" xmlns:xlink="http://www.w3.org/1999/xlink" viewBox="0 0 50 50" fill="#5B5B5B">
  <path d="M25 0C22.546875 0 20.476563 1.355469 17.40625 2.9375C14.335938 4.519531 10.214844 6.429688 3.78125 7.84375L3 8.03125L3 8.8125C3 24.132813 8.371094 34.371094 13.75 40.71875C19.128906 47.066406 24.59375 49.59375 24.59375 49.59375L25.03125 49.8125L25.46875 49.59375C25.46875 49.59375 47 38.46875 47 8.8125L47 8.03125L46.21875 7.84375C39.785156 6.429688 35.664063 4.519531 32.59375 2.9375C29.523438 1.355469 27.453125 0 25 0 Z M 25 2C26.644531 2 28.550781 3.105469 31.6875 4.71875C34.667969 6.25 38.859375 8.128906 44.9375 9.5625C44.570313 36.679688 26.253906 46.851563 24.96875 47.53125C24.347656 47.230469 20.019531 45.066406 15.25 39.4375C10.222656 33.503906 5.246094 23.960938 5.0625 9.5625C11.140625 8.128906 15.332031 6.25 18.3125 4.71875C21.449219 3.105469 23.355469 2 25 2 Z M 32.6875 14.625L32.15625 15.46875L24.03125 28.09375L18.65625 23.25L17.9375 22.59375L16.59375 24.0625L17.34375 24.75L23.53125 30.375L24.40625 31.15625L25.0625 30.15625L33.84375 16.53125L34.375 15.6875Z" fill="#5B5B5B" />
</svg>