<svg xmlns="http://www.w3.org/2000/svg" xmlns:xlink="http://www.w3.org/1999/xlink" viewBox="0 0 50 50" fill="#5B5B5B">
  <path d="M10 0C6.699219 0 4 2.699219 4 6C4 9.300781 6.699219 12 10 12C13.300781 12 16 9.300781 16 6C16 2.699219 13.300781 0 10 0 Z M 10 2C12.222656 2 14 3.777344 14 6C14 8.222656 12.222656 10 10 10C7.777344 10 6 8.222656 6 6C6 3.777344 7.777344 2 10 2 Z M 5.5 13C2.464844 13 0 15.464844 0 18.5L0 31.8125C-0.0078125 31.875 -0.0078125 31.9375 0 32C-0.00390625 32.09375 0.0078125 32.191406 0.03125 32.28125C0.179688 33.792969 1.453125 35 3 35C3.351563 35 3.683594 34.925781 4 34.8125L4 47.3125C4 48.777344 5.222656 50 6.6875 50L8.40625 50C9.058594 50 9.640625 49.695313 10.125 49.28125C10.589844 49.675781 11.144531 50 11.8125 50L13.5 50C14.917969 50 16.1875 48.847656 16.1875 47.3125L16.1875 45.90625C17.5 45.738281 18.503906 45.308594 19.21875 44.65625C20.136719 43.816406 20.53125 42.78125 20.90625 41.90625C21.28125 41.03125 21.636719 40.316406 22.15625 39.84375C22.675781 39.371094 23.417969 39 25 39L25 37C23.082031 37 21.699219 37.503906 20.78125 38.34375C19.863281 39.183594 19.46875 40.21875 19.09375 41.09375C18.71875 41.96875 18.363281 42.683594 17.84375 43.15625C17.480469 43.488281 16.980469 43.769531 16.1875 43.90625L16.1875 34.875C16.449219 34.949219 16.714844 35 17 35C18.546875 35 19.820313 33.792969 19.96875 32.28125C19.972656 32.238281 19.996094 32.199219 20 32.15625C20.003906 32.105469 20.003906 32.050781 20 32C20 31.96875 20 31.9375 20 31.90625L20 18.5C20 15.464844 17.535156 13 14.5 13 Z M 5.5 15L14.5 15C16.464844 15 18 16.535156 18 18.5L18 31.84375C18 31.875 18 31.90625 18 31.9375L18 32C18 32.554688 17.554688 33 17 33C16.660156 33 16.367188 32.820313 16.1875 32.5625L16.1875 21C16.191406 20.640625 16.003906 20.304688 15.691406 20.121094C15.378906 19.941406 14.996094 19.941406 14.683594 20.121094C14.371094 20.304688 14.183594 20.640625 14.1875 21L14.1875 31.40625C14.0625 31.578125 13.996094 31.789063 14 32C14 32.34375 14.078125 32.660156 14.1875 32.96875L14.1875 43L11 43L11 33.6875C11.003906 33.398438 10.878906 33.125 10.664063 32.933594C10.449219 32.742188 10.160156 32.652344 9.875 32.6875C9.371094 32.75 8.996094 33.179688 9 33.6875L9 47.6875C8.882813 47.898438 8.664063 48 8.40625 48L6.6875 48C6.152344 48 6 47.847656 6 47.3125L6 21C6.011719 20.710938 5.894531 20.433594 5.6875 20.238281C5.476563 20.039063 5.191406 19.941406 4.90625 19.96875C4.863281 19.976563 4.820313 19.988281 4.78125 20C4.316406 20.105469 3.988281 20.523438 4 21L4 31.84375C4 31.875 4 31.90625 4 31.9375L4 32C4 32.554688 3.554688 33 3 33C2.46875 33 2.03125 32.585938 2 32.0625C2 32.042969 2 32.019531 2 32C2.007813 31.9375 2.007813 31.875 2 31.8125L2 18.5C2 16.535156 3.535156 15 5.5 15 Z M 38 26C31.363281 26 26 31.363281 26 38C26 44.636719 31.363281 50 38 50C44.636719 50 50 44.636719 50 38C50 31.363281 44.636719 26 38 26 Z M 38 28C43.566406 28 48 32.433594 48 38C48 43.566406 43.566406 48 38 48C32.433594 48 28 43.566406 28 38C28 32.433594 32.433594 28 38 28 Z M 37.3125 30L37.3125 31.59375C36.113281 31.695313 34 32.6875 34 35.1875C34 39.886719 40.8125 37.398438 40.8125 41C40.8125 42.199219 40.300781 43.1875 38 43.1875C35.699219 43.1875 35.09375 41.5 35.09375 40.5L33.59375 40.5C33.792969 43.601563 36.011719 44.398438 37.3125 44.5L37.3125 46L38.8125 46L38.8125 44.59375C39.8125 44.492188 42.40625 43.707031 42.40625 40.90625C42.40625 38.507813 40.394531 37.804688 38.59375 37.40625C37.09375 37.007813 35.6875 36.585938 35.6875 35.1875C35.6875 34.488281 35.992188 33.09375 38.09375 33.09375C39.59375 33.09375 40.292969 33.988281 40.59375 35.1875L42 35.1875C41.601563 33.585938 40.914063 32.113281 38.8125 31.8125L38.8125 30 Z M 11 46L14.1875 46L14.1875 47.3125C14.1875 47.777344 13.882813 48 13.5 48L11.8125 48C11.347656 48 11.09375 47.695313 11.09375 47.3125C11.085938 47.183594 11.054688 47.054688 11 46.9375Z" fill="#5B5B5B" />
</svg>