<svg xmlns="http://www.w3.org/2000/svg" xmlns:xlink="http://www.w3.org/1999/xlink" viewBox="0 0 50 50" fill="#5B5B5B">
  <path d="M23.6875 1.03125C23.019531 1.011719 22.375 1.261719 21.84375 1.65625C21.3125 2.050781 20.835938 2.570313 20.375 3.21875C20.023438 3.714844 19.675781 3.925781 19.0625 4.0625C18.449219 4.199219 17.59375 4.1875 16.59375 4.1875C15.476563 4.1875 14.667969 4.285156 14 4.53125C13.464844 4.726563 12.976563 5.109375 12.71875 5.59375C12.707031 5.625 12.695313 5.65625 12.6875 5.6875C12.675781 5.710938 12.664063 5.726563 12.65625 5.75C12.644531 5.769531 12.632813 5.792969 12.625 5.8125C12.605469 5.867188 12.574219 5.914063 12.5625 5.96875C12.402344 6.640625 12.628906 7.207031 12.90625 7.65625C13.179688 8.097656 13.542969 8.476563 13.90625 8.8125C14.324219 9.230469 15.210938 9.988281 16.0625 11.34375C16.832031 12.566406 17.390625 14.230469 17.34375 16.21875C14.03125 17.230469 10.867188 19.640625 8.4375 22.71875C5.800781 26.058594 4 30.132813 4 34.09375C4 38.980469 5.53125 42.460938 9 44.4375C12.46875 46.414063 17.59375 47 25 47C32.40625 47 37.53125 46.414063 41 44.4375C44.46875 42.460938 46 38.980469 46 34.09375C46 26.53125 40.074219 19.609375 33.25 16.59375C33.730469 16.53125 34.226563 16.484375 34.75 16.5C36.433594 16.542969 38.230469 17.050781 39.78125 18.6875C40.015625 18.988281 40.402344 19.132813 40.777344 19.054688C41.148438 18.976563 41.449219 18.691406 41.542969 18.320313C41.636719 17.953125 41.511719 17.558594 41.21875 17.3125C39.40625 15.394531 37.210938 14.667969 35.25 14.53125C36.890625 13.84375 38.777344 13.636719 41.03125 14.875C41.347656 15.097656 41.761719 15.117188 42.101563 14.929688C42.4375 14.738281 42.632813 14.371094 42.605469 13.984375C42.578125 13.597656 42.328125 13.265625 41.96875 13.125C40.5625 12.351563 39.226563 12.039063 37.96875 12.03125C35.136719 12.015625 32.753906 13.523438 31.1875 14.59375C30.960938 10.949219 33.023438 8.042969 33.28125 7.71875L33.3125 7.6875L33.34375 7.625C33.691406 7.078125 34.234375 6.300781 34.46875 5.375C34.585938 4.914063 34.652344 4.304688 34.25 3.75C33.847656 3.195313 33.167969 3 32.5 3C31.25 3 30.121094 3.425781 29.21875 3.59375C28.316406 3.761719 27.859375 3.734375 27.40625 3.28125L27.40625 3.3125C27.398438 3.304688 27.382813 3.320313 27.375 3.3125C26.074219 1.960938 25.019531 1.070313 23.6875 1.03125 Z M 23.625 3.03125C23.988281 3.042969 24.777344 3.449219 25.96875 4.6875L26 4.6875L26 4.71875C27.046875 5.765625 28.472656 5.738281 29.59375 5.53125C30.441406 5.375 31.246094 5.164063 31.90625 5.0625C31.917969 5.136719 31.933594 5.140625 31.84375 5.28125C31.753906 5.421875 31.546875 5.660156 31.21875 5.9375C30.5625 6.492188 29.46875 7.199219 28.3125 8.25C27.839844 8.683594 27.277344 8.976563 26.84375 9.03125C26.410156 9.085938 26.160156 9 25.875 8.65625L25.84375 8.65625C25.335938 8.023438 24.878906 7.542969 24.34375 7.21875C23.796875 6.886719 23.152344 6.71875 22.5625 6.8125C21.394531 6.996094 20.652344 7.835938 19.75 8.6875L19.71875 8.6875L19.71875 8.65625C19.203125 9.140625 18.589844 9.300781 17.65625 8.90625C16.867188 8.574219 15.894531 7.742188 14.96875 6.375C15.3125 6.28125 15.8125 6.1875 16.59375 6.1875C17.59375 6.1875 18.5625 6.210938 19.5 6C20.4375 5.789063 21.351563 5.28125 22 4.375L22.03125 4.375C22.421875 3.824219 22.761719 3.449219 23.03125 3.25C23.300781 3.050781 23.445313 3.027344 23.625 3.03125 Z M 22.875 8.8125C23 8.792969 23.078125 8.765625 23.3125 8.90625C23.546875 9.046875 23.878906 9.359375 24.3125 9.90625L24.3125 9.9375L24.34375 9.9375C25.058594 10.792969 26.128906 11.121094 27.09375 11C28.058594 10.878906 28.957031 10.417969 29.6875 9.75C29.792969 9.652344 29.894531 9.59375 30 9.5C29.328125 11.125 28.796875 13.296875 29.21875 15.78125C24.59375 18.027344 20.890625 16.839844 19.46875 16.1875C19.507813 14.148438 18.917969 12.398438 18.1875 11.03125C19.265625 11.136719 20.324219 10.847656 21.09375 10.125C21.984375 9.285156 22.625 8.851563 22.875 8.8125 Z M 30.25 17.5C37.164063 19.523438 44 26.84375 44 34.09375C44 38.605469 42.886719 41.09375 40.03125 42.71875C37.175781 44.34375 32.292969 45 25 45C17.707031 45 12.824219 44.34375 9.96875 42.71875C7.113281 41.09375 6 38.605469 6 34.09375C6 30.753906 7.585938 26.996094 10 23.9375C12.382813 20.921875 15.554688 18.617188 18.5 17.90625C20.175781 18.660156 24.800781 20.203125 30.25 17.5 Z M 23.5 22L23.5 24C22 24.199219 19.40625 25.394531 19.40625 28.59375C19.40625 34.394531 27.8125 31.414063 27.8125 35.8125C27.8125 37.3125 27.105469 38.59375 24.40625 38.59375C21.605469 38.59375 20.8125 36.386719 20.8125 35.1875L19 35.1875C19.300781 39.085938 22 40.011719 23.5 40.3125L23.5 42L25.3125 42L25.3125 40.3125C26.710938 40.210938 29.90625 39.195313 29.90625 35.59375C29.90625 32.59375 27.492188 31.789063 25.09375 31.1875C23.195313 30.6875 21.40625 30.304688 21.40625 28.40625C21.40625 27.605469 21.707031 25.8125 24.40625 25.8125C26.304688 25.8125 27.199219 27.007813 27.5 28.40625L29.3125 28.40625C28.8125 26.40625 27.914063 24.59375 25.3125 24.09375L25.3125 22Z" fill="#5B5B5B" />
</svg>