<svg xmlns="http://www.w3.org/2000/svg" xmlns:xlink="http://www.w3.org/1999/xlink" viewBox="0 0 50 50" fill="#5B5B5B">
  <path d="M20.25 2C15.741882 2 12.873085 3.9231992 11.689453 6.8339844C10.559148 9.6136278 10.854015 13.091541 11.724609 16.693359C11.263817 17.246103 10.897231 17.989609 11.027344 19.091797C11.171358 20.302851 11.494908 21.164448 11.966797 21.773438C12.220505 22.100856 12.552042 22.134899 12.863281 22.296875C13.038302 23.325491 13.343844 24.352485 13.775391 25.199219C14.023979 25.686972 14.291745 26.122026 14.566406 26.486328C14.685034 26.643672 14.854004 26.740028 14.978516 26.873047C14.985016 28.368058 14.979022 29.059906 14.882812 30.351562C14.567072 31.117286 13.814604 31.754456 12.609375 32.365234C11.363461 32.996627 9.7385804 33.562431 8.0957031 34.28125C6.4528259 35.000069 4.7751294 35.878835 3.4375 37.244141C2.0998706 38.609446 1.1478515 40.487462 1.0019531 42.941406 A 1.0001 1.0001 0 0 0 2 44L30.845703 44C32.397025 47.52231 35.921143 50 40 50C45.5 50 50 45.5 50 40C50 35.003421 46.28215 30.844786 41.478516 30.123047 A 1.0002742 1.0002742 0 0 0 41.40625 30.085938C40.773203 29.804489 39.674889 29.1562 38.748047 28.462891C37.849787 27.790962 37.159952 26.965746 37.080078 26.816406C36.994708 25.724983 37.012761 24.841537 37.019531 23.808594C37.127476 23.707687 37.254243 23.639323 37.367188 23.517578C37.654252 23.208147 37.951253 22.830932 38.236328 22.400391C38.720045 21.669845 39.073515 20.73949 39.275391 19.777344C39.567948 19.623773 39.882703 19.588308 40.117188 19.283203C40.553328 18.715708 40.844825 17.923463 40.974609 16.822266C41.089938 15.843858 40.77895 15.168098 40.375 14.648438C40.682833 13.302739 41.149715 11.138402 40.970703 8.9414062C40.872889 7.7409459 40.578091 6.5318986 39.855469 5.5214844C39.170289 4.5634241 38.048674 3.8803035 36.632812 3.6347656C35.649985 2.5195933 34.098394 2 32.277344 2C29.555976 2 27.657023 2.8957341 26.349609 4.1972656C26.024944 4.0719246 25.68244 3.9662313 25.320312 3.8886719C24.286842 2.5159465 22.390969 2 20.25 2 z M 20.25 4C22.225882 4 23.527216 4.5961521 23.876953 5.21875 A 1.0001 1.0001 0 0 0 24.613281 5.7207031C25.119101 5.7899223 25.516643 5.9249278 25.867188 6.09375 A 1.0001 1.0001 0 0 0 26.34375 6.3769531C26.641949 6.5958106 26.898684 6.8478046 27.109375 7.1542969C27.627526 7.9080505 27.917583 8.9727821 28.009766 10.162109C28.194131 12.540765 27.595718 15.312965 27.269531 16.712891 A 1.0001 1.0001 0 0 0 27.71875 17.792969C27.66616 17.760669 28.099041 18.038955 28.001953 18.855469 A 1.0001 1.0001 0 0 0 28 18.855469C27.885481 19.822225 27.639432 20.326056 27.466797 20.548828C27.294162 20.7716 27.211295 20.754198 27.214844 20.753906 A 1.0001 1.0001 0 0 0 26.300781 21.644531C26.212061 22.482658 25.856435 23.531578 25.443359 24.363281C25.236822 24.779133 25.017125 25.14428 24.830078 25.400391C24.643031 25.656501 24.437507 25.797217 24.541016 25.742188 A 1.0001 1.0001 0 0 0 24.009766 26.625C24.009766 28.071405 24.001366 29.043203 24.128906 30.701172 A 1.0001 1.0001 0 0 0 24.185547 30.970703C24.726894 32.443611 25.970073 33.395799 27.353516 34.138672C28.471346 34.738918 29.72612 35.230353 30.974609 35.732422C30.356203 37.029989 30 38.473563 30 40C30 40.684743 30.068426 41.353011 30.201172 42L3.2402344 42C3.517982 40.609353 4.0361297 39.492784 4.8671875 38.644531C5.9144018 37.575649 7.3524397 36.789712 8.8984375 36.113281C10.444435 35.43685 12.081484 34.876186 13.513672 34.150391C14.94586 33.424595 16.254365 32.489615 16.8125 30.970703 A 1.0001 1.0001 0 0 0 16.871094 30.701172C16.997297 29.060532 16.998285 28.494974 16.988281 26.494141 A 1.0001 1.0001 0 0 0 16.457031 25.617188C16.541531 25.662047 16.346385 25.525668 16.162109 25.28125C15.977834 25.036833 15.761755 24.689638 15.558594 24.291016C15.15227 23.493772 14.801226 22.482892 14.712891 21.644531 A 1.0001 1.0001 0 0 0 13.802734 20.753906C13.804734 20.75407 13.721444 20.771586 13.548828 20.548828C13.376398 20.326302 13.128812 19.822382 13.013672 18.857422L13.013672 18.855469C12.919222 18.041973 13.349341 17.758693 13.296875 17.791016 A 1.0001 1.0001 0 0 0 13.740234 16.691406C12.82276 13.117706 12.638398 9.8076055 13.541016 7.5878906C14.443633 5.3681758 16.258118 4 20.25 4 z M 32.277344 4C34.018629 4 35.132762 4.532262 35.417969 5.0429688 A 1.0001 1.0001 0 0 0 36.158203 5.546875C37.233047 5.6900774 37.806778 6.0931174 38.230469 6.6855469C38.654159 7.2779764 38.899079 8.1286011 38.978516 9.1035156C39.137388 11.053345 38.62847 13.384075 38.335938 14.650391 A 1.0001 1.0001 0 0 0 38.783203 15.724609C38.696363 15.670659 39.071105 15.887179 38.988281 16.589844C38.887065 17.448646 38.670359 17.883448 38.53125 18.064453C38.392141 18.245458 38.347231 18.210032 38.382812 18.207031 A 1.0001 1.0001 0 0 0 37.470703 19.099609C37.401473 19.75879 37.022163 20.612505 36.570312 21.294922C36.344389 21.63613 36.10345 21.937369 35.900391 22.15625C35.697331 22.375131 35.492595 22.518013 35.537109 22.494141 A 1.0001 1.0001 0 0 0 35.009766 23.375C35.009766 24.655987 34.959157 25.702868 35.091797 27.195312 A 1.0001 1.0001 0 0 0 35.146484 27.449219C35.553782 28.567004 36.507123 29.283762 37.550781 30.064453C37.639549 30.130854 37.730454 30.183165 37.820312 30.248047C35.472555 30.776082 33.437042 32.137063 32.029297 34C30.660245 33.44345 29.335578 32.932612 28.300781 32.376953C27.150306 31.759178 26.424954 31.106521 26.115234 30.351562C26.021404 29.045893 26.018931 28.153422 26.019531 26.988281C26.146774 26.848618 26.324413 26.745618 26.445312 26.580078C26.719953 26.204032 26.985163 25.753727 27.234375 25.251953C27.668311 24.37825 27.979142 23.332192 28.154297 22.294922C28.464744 22.132955 28.795873 22.099856 29.048828 21.773438C29.520943 21.164209 29.842847 20.303041 29.986328 19.091797C30.115811 18.002836 29.759142 17.266366 29.306641 16.712891C29.654381 15.1971 30.205866 12.613471 30.003906 10.007812C29.894837 8.6006407 29.563474 7.1934807 28.757812 6.0214844C28.572004 5.7511882 28.353882 5.5033851 28.109375 5.2753906C29.018363 4.4837085 30.221598 4 32.277344 4 z M 40 32C44.4 32 48 35.6 48 40C48 44.4 44.4 48 40 48C35.6 48 32 44.4 32 40C32 35.6 35.6 32 40 32 z M 40 34C39.4 34 39 34.400391 39 34.900391L39 39L35.099609 39C34.499609 39 34.099609 39.4 34.099609 40C34.099609 40.6 34.499609 41 35.099609 41L39 41L39 45C39 45.6 39.4 46 40 46C40.6 46 41 45.6 41 45L41 41L44.900391 41C45.500391 41 45.900391 40.6 45.900391 40C45.900391 39.4 45.5 39 45 39L41 39L41 35C41 34.4 40.6 34 40 34 z" fill="#5B5B5B" />
</svg>