<svg xmlns="http://www.w3.org/2000/svg" xmlns:xlink="http://www.w3.org/1999/xlink" viewBox="0 0 48 48" fill="#5B5B5B">
  <path d="M21 7C11.626 7 4 14.626 4 24C4 33.374 11.626 41 21 41C25.036 41 28.954828 39.55125 32.048828 36.90625C32.392828 36.60425 40.487812 29.479609 42.757812 27.099609C44.414812 25.361609 44.413859 22.637438 42.755859 20.898438C40.116859 18.131438 32.37125 11.374125 32.03125 11.078125C28.95325 8.448125 25.036 7 21 7 z M 21 13C23.757 13 26 15.243 26 18L26 21C27.657 21 29 22.343 29 24L29 30C29 31.657 27.657 33 26 33L16 33C14.343 33 13 31.657 13 30L13 24C13 22.343 14.343 21 16 21L16 18C16 15.243 18.243 13 21 13 z M 21 16C19.897 16 19 16.897 19 18L19 21L23 21L23 18C23 16.897 22.103 16 21 16 z M 21 25 A 2 2 0 0 0 21 29 A 2 2 0 0 0 21 25 z" fill="#5B5B5B" />
</svg>