<svg xmlns="http://www.w3.org/2000/svg" xmlns:xlink="http://www.w3.org/1999/xlink" viewBox="0 0 50 50" fill="#5B5B5B">
  <path d="M7 7C5.3550302 7 4 8.3550302 4 10L4 40C4 41.64497 5.3550302 43 7 43L43 43C44.64497 43 46 41.64497 46 40L46 10C46 8.3550302 44.64497 7 43 7L7 7 z M 7 9L43 9C43.56503 9 44 9.4349698 44 10L44 13L6 13L6 10C6 9.4349698 6.4349698 9 7 9 z M 8 10 A 1 1 0 0 0 7 11 A 1 1 0 0 0 8 12 A 1 1 0 0 0 9 11 A 1 1 0 0 0 8 10 z M 11 10 A 1 1 0 0 0 10 11 A 1 1 0 0 0 11 12 A 1 1 0 0 0 12 11 A 1 1 0 0 0 11 10 z M 14 10 A 1 1 0 0 0 13 11 A 1 1 0 0 0 14 12 A 1 1 0 0 0 15 11 A 1 1 0 0 0 14 10 z M 6 15L44 15L44 40C44 40.56503 43.56503 41 43 41L7 41C6.4349698 41 6 40.56503 6 40L6 15 z" fill="#5B5B5B" />
</svg>