<svg xmlns="http://www.w3.org/2000/svg" xmlns:xlink="http://www.w3.org/1999/xlink" viewBox="0 0 48 48" fill="#5B5B5B">
  <path d="M42.455,20.094c-2.789-2.77-7.224-6.729-8.979-8.232C29.485,8.439,24.65,6.735,19.87,7.036C11.387,7.587,4.425,14.674,4.02,23.17c-0.224,4.702,1.436,9.162,4.675,12.56C11.935,39.128,16.305,41,21,41c4.231,0,8.803-1.797,12.543-4.93c1.961-1.643,6.279-5.569,8.906-8.169c1.05-1.04,1.629-2.426,1.631-3.902C44.081,22.522,43.504,21.136,42.455,20.094z M21,15c2.209,0,4,1.791,4,4c0,2.209-1.791,4-4,4s-4-1.791-4-4C17,16.791,18.791,15,21,15z M28,27.752C28,29.975,25.163,32,21,32s-7-2.025-7-4.248v-1.304c0-0.8,0.648-1.448,1.448-1.448h11.104c0.8,0,1.448,0.648,1.448,1.448V27.752z" fill="#5B5B5B" />
</svg>