<svg xmlns="http://www.w3.org/2000/svg" xmlns:xlink="http://www.w3.org/1999/xlink" viewBox="0 0 50 50" fill="#5B5B5B">
  <path d="M5 4C3.355469 4 2 5.355469 2 7L2 43C2 44.644531 3.355469 46 5 46L30 46L30 44L5 44C4.445313 44 4 43.554688 4 43L4 7C4 6.445313 4.445313 6 5 6L45 6C45.554688 6 46 6.445313 46 7L46 28L48 28L48 7C48 5.355469 46.644531 4 45 4 Z M 10.71875 14C10.167969 14.078125 9.78125 14.589844 9.859375 15.140625C9.9375 15.691406 10.449219 16.078125 11 16L39 16C39.359375 16.003906 39.695313 15.816406 39.878906 15.503906C40.058594 15.191406 40.058594 14.808594 39.878906 14.496094C39.695313 14.183594 39.359375 13.996094 39 14L11 14C10.96875 14 10.9375 14 10.90625 14C10.875 14 10.84375 14 10.8125 14C10.78125 14 10.75 14 10.71875 14 Z M 10.71875 24C10.167969 24.078125 9.78125 24.589844 9.859375 25.140625C9.9375 25.691406 10.449219 26.078125 11 26L39 26C39.359375 26.003906 39.695313 25.816406 39.878906 25.503906C40.058594 25.191406 40.058594 24.808594 39.878906 24.496094C39.695313 24.183594 39.359375 23.996094 39 24L11 24C10.96875 24 10.9375 24 10.90625 24C10.875 24 10.84375 24 10.8125 24C10.78125 24 10.75 24 10.71875 24 Z M 37.90625 31.96875C37.863281 31.976563 37.820313 31.988281 37.78125 32C37.316406 32.105469 36.988281 32.523438 37 33L37 35L35 35C34.96875 35 34.9375 35 34.90625 35C34.355469 35.027344 33.925781 35.496094 33.953125 36.046875C33.980469 36.597656 34.449219 37.027344 35 37L37 37L37 41L35 41C34.96875 41 34.9375 41 34.90625 41C34.875 41 34.84375 41 34.8125 41C34.261719 41.050781 33.855469 41.542969 33.90625 42.09375C33.957031 42.644531 34.449219 43.050781 35 43L37 43L37 45C36.996094 45.359375 37.183594 45.695313 37.496094 45.878906C37.808594 46.058594 38.191406 46.058594 38.503906 45.878906C38.816406 45.695313 39.003906 45.359375 39 45L39 43L43 43L43 45C42.996094 45.359375 43.183594 45.695313 43.496094 45.878906C43.808594 46.058594 44.191406 46.058594 44.503906 45.878906C44.816406 45.695313 45.003906 45.359375 45 45L45 43L47 43C47.359375 43.003906 47.695313 42.816406 47.878906 42.503906C48.058594 42.191406 48.058594 41.808594 47.878906 41.496094C47.695313 41.183594 47.359375 40.996094 47 41L45 41L45 37L47 37C47.359375 37.003906 47.695313 36.816406 47.878906 36.503906C48.058594 36.191406 48.058594 35.808594 47.878906 35.496094C47.695313 35.183594 47.359375 34.996094 47 35L45 35L45 33C45.011719 32.710938 44.894531 32.433594 44.6875 32.238281C44.476563 32.039063 44.191406 31.941406 43.90625 31.96875C43.863281 31.976563 43.820313 31.988281 43.78125 32C43.316406 32.105469 42.988281 32.523438 43 33L43 35L39 35L39 33C39.011719 32.710938 38.894531 32.433594 38.6875 32.238281C38.476563 32.039063 38.191406 31.941406 37.90625 31.96875 Z M 10.71875 34C10.167969 34.078125 9.78125 34.589844 9.859375 35.140625C9.9375 35.691406 10.449219 36.078125 11 36L30 36L30 34L11 34C10.96875 34 10.9375 34 10.90625 34C10.875 34 10.84375 34 10.8125 34C10.78125 34 10.75 34 10.71875 34 Z M 39 37L43 37L43 41L39 41Z" fill="#5B5B5B" />
</svg>