<svg xmlns="http://www.w3.org/2000/svg" xmlns:xlink="http://www.w3.org/1999/xlink" viewBox="0 0 50 50" fill="#5B5B5B">
  <path d="M27.8125 0C27.335938 0.0898438 26.992188 0.511719 27 1L27 9C27 9.550781 27.449219 10 28 10L31 10L31 11L24 11L24 6C24 5.449219 23.550781 5 23 5L10 5C9.96875 5 9.9375 5 9.90625 5C9.875 5 9.84375 5 9.8125 5C9.335938 5.089844 8.992188 5.511719 9 6L9 11L7.1875 11C6.273438 11 5.410156 11.351563 4.8125 11.96875C4.214844 12.585938 3.890625 13.386719 3.71875 14.3125C3.71875 14.324219 3.71875 14.332031 3.71875 14.34375L0 38.84375C0 38.863281 0 38.886719 0 38.90625C0 38.917969 0 38.925781 0 38.9375C0 38.957031 0 38.980469 0 39C-0.00390625 39.050781 -0.00390625 39.105469 0 39.15625L0 46.5C0 48.421875 1.578125 50 3.5 50L46.59375 50C48.515625 50 50.09375 48.421875 50.09375 46.5L50.09375 39C50.085938 38.824219 50.03125 38.648438 49.9375 38.5L46.28125 14.34375C46.28125 14.332031 46.28125 14.324219 46.28125 14.3125C46.109375 13.386719 45.785156 12.585938 45.1875 11.96875C44.589844 11.351563 43.726563 11 42.8125 11L39 11L39 10L42 10C42.550781 10 43 9.550781 43 9L43 1C43 0.449219 42.550781 0 42 0L28 0C27.96875 0 27.9375 0 27.90625 0C27.875 0 27.84375 0 27.8125 0 Z M 29 2L41 2L41 8L38.21875 8C38.117188 7.972656 38.011719 7.960938 37.90625 7.96875C37.875 7.976563 37.84375 7.988281 37.8125 8L32.21875 8C32.117188 7.972656 32.011719 7.960938 31.90625 7.96875C31.875 7.976563 31.84375 7.988281 31.8125 8L29 8 Z M 11 7L22 7L22 11.84375C22 11.875 22 11.90625 22 11.9375L22 23L11 23L11 12C11 11.96875 11 11.9375 11 11.90625 Z M 13 10L13 12L20 12L20 10 Z M 33 10L37 10L37 11L33 11 Z M 7.1875 13L9 13L9 24C9 24.550781 9.449219 25 10 25L23 25C23.09375 25.003906 23.191406 24.992188 23.28125 24.96875C23.347656 24.945313 23.410156 24.914063 23.46875 24.875C23.792969 24.703125 23.996094 24.367188 24 24L24 13L42.8125 13C43.296875 13 43.523438 13.109375 43.75 13.34375C43.972656 13.570313 44.183594 14.003906 44.3125 14.65625L44.3125 14.6875L47.8125 38L2.1875 38L5.6875 14.6875L5.6875 14.65625C5.816406 14.003906 6.027344 13.570313 6.25 13.34375C6.476563 13.109375 6.703125 13 7.1875 13 Z M 13 14L13 16L20 16L20 14 Z M 29.09375 15C27.9375 15 27 15.9375 27 17.09375L27 20.8125C27 22.082031 28.03125 23 29.1875 23L41.09375 23C41.671875 23 42.246094 22.773438 42.625 22.3125C42.976563 21.882813 43.0625 21.242188 42.9375 20.65625L43 20.65625L42.96875 20.53125L42.5 17.09375L42.5 16.96875L42.4375 16.96875C42.355469 15.789063 41.417969 15 40.3125 15 Z M 29.09375 17L40.3125 17C40.355469 17 40.5 17.160156 40.5 17.09375C40.496094 17.136719 40.496094 17.175781 40.5 17.21875L41 20.9375C41.007813 20.957031 41.019531 20.980469 41.03125 21L29.1875 21C29.144531 21 29 20.941406 29 20.8125L29 17.09375C29 17.050781 29.050781 17 29.09375 17 Z M 13 18L13 20L20 20L20 18 Z M 28 25.09375C27.5 25.09375 27.09375 25.5 27.09375 26L27.09375 28.09375C27.09375 28.59375 27.5 29 28 29L30.09375 29C30.59375 29 31 28.59375 31 28.09375L31 26C31 25.5 30.59375 25.09375 30.09375 25.09375 Z M 34 25.09375C33.5 25.09375 33.09375 25.5 33.09375 26L33.09375 28.09375C33.09375 28.59375 33.5 29 34 29L36.09375 29C36.59375 29 37 28.59375 37 28.09375L37 26C37 25.5 36.59375 25.09375 36.09375 25.09375 Z M 40 25.09375C39.5 25.09375 39.09375 25.5 39.09375 26L39.09375 28.09375C39.09375 28.59375 39.5 29 40 29L42.09375 29C42.59375 29 43 28.59375 43 28.09375L43 26C43 25.5 42.59375 25.09375 42.09375 25.09375 Z M 28 31.09375C27.5 31.09375 27.09375 31.5 27.09375 32L27.09375 34.09375C27.09375 34.59375 27.5 35 28 35L30.09375 35C30.59375 35 31 34.59375 31 34.09375L31 32C31 31.5 30.59375 31.09375 30.09375 31.09375 Z M 34 31.09375C33.5 31.09375 33.09375 31.5 33.09375 32L33.09375 34.09375C33.09375 34.59375 33.5 35 34 35L36.09375 35C36.59375 35 37 34.59375 37 34.09375L37 32C37 31.5 36.59375 31.09375 36.09375 31.09375 Z M 40 31.09375C39.5 31.09375 39.09375 31.5 39.09375 32L39.09375 34.09375C39.09375 34.59375 39.5 35 40 35L42.09375 35C42.59375 35 43 34.59375 43 34.09375L43 32C43 31.5 42.59375 31.09375 42.09375 31.09375 Z M 2 40L48.09375 40L48.09375 46.5C48.09375 47.375 47.46875 48 46.59375 48L3.5 48C2.625 48 2 47.375 2 46.5 Z M 25 42C23.894531 42 23 42.894531 23 44C23 45.105469 23.894531 46 25 46C26.105469 46 27 45.105469 27 44C27 42.894531 26.105469 42 25 42Z" fill="#5B5B5B" />
</svg>