<svg xmlns="http://www.w3.org/2000/svg" xmlns:xlink="http://www.w3.org/1999/xlink" viewBox="0 0 50 50" fill="#5B5B5B">
  <path d="M5 5 A 1.0001 1.0001 0 0 0 4 6L4 11L3 11C1.3550302 11 0 12.35503 0 14L0 40C0 41.641953 1.3496817 43 2.9941406 43L5.0058594 43C14.228508 43.000986 23.684244 44.836194 24.027344 44.904297L24.03125 44.90625L24.033203 44.90625C24.351262 44.96785 24.674817 45 25 45C25.325183 45 25.649005 44.96808 25.966797 44.90625L25.96875 44.90625L25.970703 44.904297C26.321945 44.834781 35.772506 43.000986 44.994141 43L47 43C48.64497 43 50 41.64497 50 40L50 14C50 12.35503 48.64497 11 47 11L46 11L46 6 A 1.0001 1.0001 0 0 0 45 5C35.023812 5 25.304898 6.9275753 25 6.9882812C24.695102 6.9275753 14.976188 5 5 5 z M 6 7.0429688C14.32298 7.1541825 22.083773 8.48817 24 8.8378906L24 38.810547C21.730953 38.400345 14.238118 37.149907 6 37.042969L6 7.0429688 z M 44 7.0429688L44 37.042969C35.761882 37.149907 28.269047 38.400345 26 38.810547L26 8.8378906C27.916227 8.48817 35.67702 7.1541825 44 7.0429688 z M 34 12L34 14.085938C32.285589 14.362889 31.169784 15.321403 30.628906 16.279297C29.988564 17.413342 30 18.542969 30 18.542969C30 19.964265 30.714063 21.097044 31.619141 21.833984C32.524219 22.570925 33.597025 23.024695 34.595703 23.466797C35.594381 23.908899 36.516793 24.339719 37.111328 24.832031C37.705863 25.324343 38 25.77018 38 26.625C38 26.625 37.9916 27.210521 37.640625 27.802734C37.289684 28.394947 36.71875 29 35 29C33.333333 29 32.775274 28.31422 32.394531 27.552734C32.013788 26.791248 32 26 32 26L30 26C30 26 29.98621 27.208752 30.605469 28.447266C31.130176 29.496681 32.252207 30.59171 34 30.904297L34 33L36 33L36 30.917969C37.701972 30.654727 38.81166 29.746534 39.359375 28.822266C40.008434 27.726979 40 26.625 40 26.625C40 25.18832 39.294137 24.040797 38.388672 23.291016C37.483207 22.541234 36.405619 22.081945 35.404297 21.638672C34.402975 21.195399 33.475781 20.767606 32.880859 20.283203C32.285937 19.7988 32 19.371672 32 18.542969C32 18.542969 32.01144 17.898673 32.371094 17.261719C32.730752 16.624764 33.295167 16 35 16C36.666667 16 37.224726 16.68578 37.605469 17.447266C37.986212 18.208752 38 19 38 19L40 19C40 19 40.01379 17.791248 39.394531 16.552734C38.869824 15.503319 37.747793 14.40829 36 14.095703L36 12L34 12 z M 3 13L4 13L4 38 A 1.0001 1.0001 0 0 0 5 39C14.866667 39 24.804688 40.980469 24.804688 40.980469 A 1.0001 1.0001 0 0 0 25.195312 40.980469C25.195313 40.980469 35.133333 39 45 39 A 1.0001 1.0001 0 0 0 46 38L46 13L47 13C47.56503 13 48 13.43497 48 14L48 40C48 40.56503 47.56503 41 47 41L44.994141 41C35.509775 41.001 26.028695 42.854922 25.582031 42.943359C25.387096 42.981034 25.189556 43 25 43C24.809183 43 24.611962 42.979756 24.414062 42.941406L24.417969 42.943359C23.965076 42.853411 14.491211 41.001014 5.0058594 41L2.9941406 41C2.4305996 41 2 40.568047 2 40L2 14C2 13.43497 2.4349698 13 3 13 z" fill="#5B5B5B" />
</svg>