<svg xmlns="http://www.w3.org/2000/svg" xmlns:xlink="http://www.w3.org/1999/xlink" viewBox="0 0 50 50" fill="#5B5B5B">
  <path d="M21 2C20.832031 2 20.667969 2.042969 20.523438 2.121094L2.523438 11.898438C2.199219 12.074219 2 12.410156 2 12.777344L2 16C2 16.550781 2.449219 17 3 17L5 17L5 37C5 37.550781 5.449219 38 6 38L18 38L18 46C18 46.773438 18.425781 47.4375 18.964844 47.917969C19.503906 48.394531 20.191406 48.757813 20.992188 49.058594C22.597656 49.660156 24.691406 50 27 50C29.308594 50 31.402344 49.660156 33.007813 49.058594C33.808594 48.757813 34.496094 48.394531 35.035156 47.917969C35.574219 47.4375 36 46.773438 36 46L36 43.789063C36.9375 43.925781 37.945313 44 39 44C41.308594 44 43.402344 43.660156 45.007813 43.058594C45.808594 42.757813 46.496094 42.394531 47.035156 41.917969C47.574219 41.4375 48 40.773438 48 40L48 24C48 23.90625 47.988281 23.808594 47.964844 23.71875C47.875 23.066406 47.507813 22.503906 47.035156 22.082031C46.496094 21.605469 45.808594 21.242188 45.007813 20.941406C43.402344 20.339844 41.308594 20 39 20C38.308594 20 37.644531 20.039063 37 20.097656L37 17L39 17C39.550781 17 40 16.550781 40 16L40 12.777344C40 12.410156 39.800781 12.074219 39.476563 11.898438L21.476563 2.121094C21.328125 2.042969 21.164063 2 21 2 Z M 21 4.140625L38 13.375L38 15L36.71875 15L21.484375 6.625C21.183594 6.457031 20.816406 6.457031 20.515625 6.625L5.28125 15L4 15L4 13.375 Z M 21 8.640625L35 16.339844L35 20.394531C34.277344 20.542969 33.59375 20.714844 32.992188 20.941406C32.191406 21.242188 31.503906 21.605469 30.964844 22.082031C30.492188 22.503906 30.125 23.070313 30.035156 23.722656C30.011719 23.8125 30 23.90625 30 24L30 30.214844C29.058594 30.078125 28.058594 30 27 30C24.691406 30 22.597656 30.339844 20.992188 30.941406C20.191406 31.242188 19.503906 31.605469 18.964844 32.082031C18.492188 32.503906 18.125 33.070313 18.035156 33.722656C18.011719 33.8125 18 33.90625 18 34L18 36L7 36L7 16.339844 Z M 39 22C41.109375 22 43.015625 22.332031 44.308594 22.8125C44.953125 23.054688 45.4375 23.339844 45.707031 23.578125C45.976563 23.820313 46 23.945313 46 24C46 24.054688 45.976563 24.179688 45.707031 24.421875C45.4375 24.660156 44.953125 24.945313 44.308594 25.1875C43.015625 25.667969 41.109375 26 39 26C36.890625 26 34.984375 25.667969 33.691406 25.1875C33.046875 24.945313 32.5625 24.660156 32.292969 24.421875C32.023438 24.179688 32 24.054688 32 24C32 23.945313 32.023438 23.820313 32.292969 23.578125C32.5625 23.339844 33.046875 23.054688 33.691406 22.8125C34.984375 22.332031 36.890625 22 39 22 Z M 32 26.609375C32.308594 26.773438 32.632813 26.925781 32.992188 27.058594C34.597656 27.660156 36.691406 28 39 28C41.308594 28 43.402344 27.660156 45.007813 27.058594C45.367188 26.925781 45.691406 26.773438 46 26.609375L46 28C46 28.054688 45.976563 28.179688 45.707031 28.421875C45.4375 28.660156 44.949219 28.945313 44.304688 29.1875C43.011719 29.667969 41.109375 30 39 30C36.890625 30 34.988281 29.667969 33.695313 29.1875C33.050781 28.945313 32.5625 28.660156 32.292969 28.421875C32.023438 28.179688 32 28.054688 32 28 Z M 32 30.609375C32.042969 30.632813 32.097656 30.648438 32.140625 30.671875C32.09375 30.65625 32.046875 30.640625 32 30.628906 Z M 46 30.609375L46 32C46 32.054688 45.976563 32.179688 45.707031 32.421875C45.4375 32.660156 44.949219 32.945313 44.304688 33.1875C43.011719 33.667969 41.109375 34 39 34C37.917969 34 36.894531 33.914063 35.972656 33.765625C35.96875 33.75 35.964844 33.734375 35.964844 33.71875C35.875 33.066406 35.507813 32.503906 35.035156 32.082031C34.703125 31.789063 34.296875 31.546875 33.859375 31.328125C35.324219 31.753906 37.078125 32 39 32C41.308594 32 43.402344 31.660156 45.007813 31.058594C45.367188 30.925781 45.691406 30.773438 46 30.609375 Z M 27 32C29.109375 32 31.015625 32.332031 32.308594 32.8125C32.953125 33.054688 33.4375 33.339844 33.707031 33.578125C33.976563 33.820313 34 33.945313 34 34C34 34.054688 33.976563 34.179688 33.707031 34.421875C33.4375 34.660156 32.953125 34.945313 32.308594 35.1875C31.015625 35.667969 29.109375 36 27 36C24.890625 36 22.984375 35.667969 21.691406 35.1875C21.046875 34.945313 20.5625 34.660156 20.292969 34.421875C20.023438 34.179688 20 34.054688 20 34C20 33.945313 20.023438 33.820313 20.292969 33.578125C20.5625 33.339844 21.046875 33.054688 21.691406 32.8125C22.984375 32.332031 24.890625 32 27 32 Z M 46 34.609375L46 36C46 36.054688 45.976563 36.179688 45.707031 36.421875C45.4375 36.660156 44.949219 36.945313 44.304688 37.1875C43.011719 37.667969 41.109375 38 39 38C37.929688 38 36.914063 37.914063 36 37.765625L36 35.789063C36.9375 35.925781 37.945313 36 39 36C41.308594 36 43.402344 35.660156 45.007813 35.058594C45.367188 34.925781 45.691406 34.773438 46 34.609375 Z M 20 36.609375C20.308594 36.773438 20.632813 36.925781 20.992188 37.058594C22.597656 37.660156 24.691406 38 27 38C29.308594 38 31.402344 37.660156 33.007813 37.058594C33.367188 36.925781 33.691406 36.773438 34 36.609375L34 38C34 38.054688 33.976563 38.179688 33.707031 38.421875C33.4375 38.660156 32.949219 38.945313 32.304688 39.1875C31.011719 39.667969 29.109375 40 27 40C24.890625 40 22.988281 39.667969 21.695313 39.1875C21.050781 38.945313 20.5625 38.660156 20.292969 38.421875C20.023438 38.179688 20 38.054688 20 38L20 37.167969C20.019531 37.058594 20.019531 36.949219 20 36.84375 Z M 46 38.609375L46 40C46 40.054688 45.976563 40.179688 45.707031 40.421875C45.4375 40.660156 44.949219 40.945313 44.304688 41.1875C43.011719 41.667969 41.109375 42 39 42C37.929688 42 36.914063 41.914063 36 41.765625L36 39.789063C36.9375 39.925781 37.945313 40 39 40C41.308594 40 43.402344 39.660156 45.007813 39.058594C45.367188 38.925781 45.691406 38.773438 46 38.609375 Z M 20 40.609375C20.308594 40.773438 20.632813 40.925781 20.992188 41.058594C22.597656 41.660156 24.691406 42 27 42C29.308594 42 31.402344 41.660156 33.007813 41.058594C33.367188 40.925781 33.691406 40.773438 34 40.609375L34 42C34 42.054688 33.976563 42.179688 33.707031 42.421875C33.4375 42.660156 32.949219 42.945313 32.304688 43.1875C31.011719 43.667969 29.109375 44 27 44C24.890625 44 22.988281 43.667969 21.695313 43.1875C21.050781 42.945313 20.5625 42.660156 20.292969 42.421875C20.023438 42.179688 20 42.054688 20 42 Z M 20 44.609375C20.308594 44.773438 20.632813 44.925781 20.992188 45.058594C22.597656 45.660156 24.691406 46 27 46C29.308594 46 31.402344 45.660156 33.007813 45.058594C33.367188 44.925781 33.691406 44.773438 34 44.609375L34 46C34 46.054688 33.976563 46.179688 33.707031 46.421875C33.4375 46.660156 32.949219 46.945313 32.304688 47.1875C31.011719 47.667969 29.109375 48 27 48C24.890625 48 22.988281 47.667969 21.695313 47.1875C21.050781 46.945313 20.5625 46.660156 20.292969 46.421875C20.023438 46.179688 20 46.054688 20 46Z" fill="#5B5B5B" />
</svg>