<svg xmlns="http://www.w3.org/2000/svg" xmlns:xlink="http://www.w3.org/1999/xlink" viewBox="0 0 50 50" fill="#5B5B5B">
  <path d="M24.878906 4.3007812C21.193906 4.3837813 18.500047 5.5094375 16.873047 7.6484375C14.947047 10.182437 14.585875 14.065312 15.796875 19.195312C15.383875 19.726312 15.012375 20.576328 15.109375 21.736328C15.405375 23.895328 16.225531 24.785391 16.894531 25.150391C17.202531 26.900391 18.049391 28.825094 18.900391 29.746094L18.900391 33.308594C18.289391 34.683594 16.300766 35.479484 14.009766 36.396484C10.145766 37.942484 5.3359531 39.866312 5.0019531 45.945312L4.9433594 47L26.402344 47L26.970703 45L7.1210938 45C7.8500938 41.015 11.352953 39.612906 14.751953 38.253906C16.764734 37.448347 18.691792 36.672584 19.890625 35.375C20.208816 35.670334 20.588616 35.919563 20.992188 36.126953C22.070626 36.681151 23.457143 37 25 37C26.554762 37 27.946074 36.6495 29.017578 36.083984C29.394491 35.885058 29.74822 35.654494 30.052734 35.388672C30.679582 36.047801 31.490319 36.573302 32.40625 37.035156L33.898438 35.53125C32.525438 34.90825 31.441047 34.239875 30.998047 33.296875L30.998047 29.746094C31.844047 28.830094 32.689 26.917781 33 25.175781C33.712 24.825781 34.589922 23.936594 34.794922 21.683594C34.889922 20.557594 34.580297 19.729312 34.154297 19.195312C35.003297 16.467312 35.748172 11.793266 33.951172 8.8222656C33.100172 7.4142656 31.799031 6.5285469 30.082031 6.1855469C29.116031 4.9655469 27.300906 4.3007812 24.878906 4.3007812 z M 24.902344 6.2988281C26.793344 6.2988281 28.154672 6.7755156 28.638672 7.6035156L28.882812 8.0214844L29.359375 8.0898438C30.691375 8.2778438 31.633234 8.8554219 32.240234 9.8574219C33.688234 12.252422 32.926594 16.734109 32.058594 19.162109L31.742188 19.986328L32.535156 20.382812C32.624156 20.445812 32.864688 20.790813 32.804688 21.507812C32.669687 22.987812 32.199609 23.382391 32.099609 23.400391L31.189453 23.400391L31.103516 24.306641C30.922516 26.202641 29.865906 28.159641 29.503906 28.431641L29 28.71875L29 33.5C29 33.48889 28.81248 33.931922 28.083984 34.316406C27.355488 34.70089 26.245238 35 25 35C23.742857 35 22.627812 34.718459 21.90625 34.347656C21.184688 33.976854 21 33.585897 21 33.5 A 1.0001 1.0001 0 0 0 20.900391 33.054688L20.900391 29.300781L20.921875 28.732422L20.417969 28.443359C20.036969 28.159359 18.977875 26.200688 18.796875 24.304688L18.783203 23.408203L17.873047 23.408203C17.731047 23.353203 17.285656 22.879578 17.097656 21.517578C17.028656 20.678578 17.456078 20.332031 17.455078 20.332031L18.044922 19.939453L17.871094 19.253906C16.658094 14.470906 16.858797 10.973375 18.466797 8.859375C19.705797 7.229375 21.879344 6.3668281 24.902344 6.2988281 z M 45.900391 28C44.900391 28 43.999219 28.399609 43.199219 29.099609L43 29.199219L42.900391 29.300781L42.599609 29.599609L41.900391 30.300781L41.699219 30.5L30 42.300781C29.9 42.400781 29.799219 42.599219 29.699219 42.699219L28 48.699219C27.8 49.199219 28.099219 49.800391 28.699219 49.900391C28.899219 50.000391 29.099219 50.000391 29.199219 49.900391L35.199219 48.300781C35.399219 48.300781 35.499219 48.2 35.699219 48L48.5 35.199219L48.800781 35C50.400781 33.4 50.400781 30.799219 48.800781 29.199219C48.000781 28.299219 46.900391 28 45.900391 28 z M 45.900391 30C46.400391 30 47.000391 30.199609 47.400391 30.599609C48.200391 31.399609 48.2 32.600391 47.5 33.400391L44.599609 30.5C44.999609 30.2 45.400391 30 45.900391 30 z M 43.099609 31.900391L46.099609 34.900391L35.199219 45.800781L32.199219 42.900391L43.099609 31.900391 z M 31.199219 44.800781L33.300781 46.900391L30.400391 47.699219L31.199219 44.800781 z" fill="#5B5B5B" />
</svg>