<svg xmlns="http://www.w3.org/2000/svg" xmlns:xlink="http://www.w3.org/1999/xlink" viewBox="0 0 50 50" fill="#5B5B5B">
  <path d="M0 0L27 27L43.09375 10.90625L32.3125 0L29.5 0L35.3125 5.8125C36.3125 6.8125 36 7.789063 35.5 9.1875C35.300781 9.789063 35.09375 10.304688 35.09375 10.90625C35.09375 11.507813 35.386719 12.207031 35.6875 12.90625C36.1875 14.007813 36.492188 14.914063 36.09375 15.3125L30 21.40625C29.800781 21.605469 29.085938 21.292969 28.6875 21.09375C28.1875 20.894531 27.6875 20.6875 27.1875 20.6875C26.789063 20.6875 26.40625 20.898438 25.90625 21C24.90625 21.398438 24.40625 21.5 23.90625 21L6 3.09375C5.398438 2.492188 5.601563 2.09375 6 1.09375C6.101563 0.695313 6.1875 0.398438 6.1875 0L4.1875 0C4.1875 0.101563 4.09375 0.207031 4.09375 0.40625C3.992188 0.507813 3.914063 0.800781 3.8125 1L2.8125 0 Z M 15.6875 0C12.488281 3.5 12.3125 8.59375 15.3125 11.59375C16.710938 12.992188 18.601563 13.710938 20.5 13.8125C22.898438 13.8125 25.199219 12.800781 27 11C30.199219 7.800781 30.707031 3.199219 28.40625 0L25.59375 0C25.894531 0.101563 26.113281 0.300781 26.3125 0.5C28.613281 2.800781 28.386719 6.800781 25.6875 9.5C24.289063 10.898438 22.394531 11.6875 20.59375 11.6875C19.09375 11.6875 17.6875 11.09375 16.6875 10.09375C14.386719 7.792969 14.613281 3.792969 17.3125 1.09375C17.8125 0.695313 18.3125 0.300781 18.8125 0 Z M 5.3125 8.3125L17 27L21.3125 24.3125L17.6875 20.6875C17.488281 20.6875 17.292969 20.710938 17.09375 20.8125C15.992188 21.011719 15.492188 21.011719 15.09375 20.3125L11.5 14.59375 Z M 37.8125 8.40625L40.3125 10.90625L37.90625 13.3125C37.707031 12.8125 37.507813 12.398438 37.40625 12C37.207031 11.601563 37 11.007813 37 10.90625C37 10.804688 37.210938 10.300781 37.3125 10C37.511719 9.601563 37.710938 9.007813 37.8125 8.40625 Z M 29.9375 11.40625C29.113281 11.40625 28.289063 11.710938 27.6875 12.3125C27.085938 12.914063 26.8125 13.699219 26.8125 14.5C26.914063 15.398438 27.210938 16.210938 27.8125 16.8125C28.414063 17.414063 29.199219 17.6875 30 17.6875C30.800781 17.6875 31.585938 17.414063 32.1875 16.8125C33.386719 15.613281 33.386719 13.613281 32.1875 12.3125C31.585938 11.710938 30.761719 11.40625 29.9375 11.40625 Z M 30 13.40625C30.300781 13.40625 30.613281 13.488281 30.8125 13.6875C31.3125 14.1875 31.3125 14.90625 30.8125 15.40625C30.414063 15.804688 29.59375 15.804688 29.09375 15.40625C28.894531 15.207031 28.8125 14.894531 28.8125 14.59375C28.914063 14.195313 28.988281 13.886719 29.1875 13.6875C29.386719 13.488281 29.699219 13.40625 30 13.40625 Z M 18 22.59375C18.101563 22.59375 18.394531 22.898438 18.59375 23C18.695313 23.101563 18.898438 23.210938 19 23.3125L17.59375 24.09375L16.8125 22.8125C17.113281 22.8125 17.300781 22.6875 17.5 22.6875C17.699219 22.6875 18 22.59375 18 22.59375 Z M 26.90625 22.59375C27.007813 22.59375 27.394531 22.804688 27.59375 22.90625C27.695313 23.007813 27.894531 22.992188 28.09375 23.09375L27 24.1875L25.8125 23C26.011719 22.898438 26.304688 22.8125 26.40625 22.8125C26.605469 22.710938 26.804688 22.59375 26.90625 22.59375 Z M 14.375 27.96875C13.660156 28.023438 12.910156 28.265625 12.375 28.90625C12.191406 29.128906 12.121094 29.40625 12.03125 29.6875C10.78125 29.132813 9.496094 28.832031 8.40625 29.03125C8.394531 29.03125 8.386719 29.03125 8.375 29.03125C7.527344 29.226563 6.773438 29.730469 6.4375 30.46875C6.347656 30.664063 6.445313 30.890625 6.40625 31.09375C5.300781 30.621094 4.273438 30.320313 3.4375 30.34375C2.253906 30.375 1.335938 30.917969 0.8125 31.59375C0.128906 32.480469 -0.0234375 33.664063 0.40625 34.65625C0.828125 35.636719 1.664063 36.480469 2.78125 37.28125C2.785156 37.285156 2.808594 37.308594 2.8125 37.3125C3.238281 37.636719 4.21875 38.304688 5.625 39.25C7.046875 40.207031 8.847656 41.398438 10.65625 42.59375C14.273438 44.984375 17.902344 47.375 18.875 47.96875C18.886719 47.96875 18.894531 47.96875 18.90625 47.96875C19.871094 48.519531 20.953125 49.386719 22.46875 49.8125C23.984375 50.238281 25.863281 50.125 28.21875 49C28.230469 49 28.238281 49 28.25 49C29.699219 48.273438 35.382813 45.28125 37.28125 44.28125C38.167969 43.816406 38.644531 43.671875 39 43.6875C39.355469 43.703125 39.742188 43.878906 40.4375 44.34375L43.15625 46.125C43.449219 46.375 43.863281 46.4375 44.214844 46.277344C44.570313 46.117188 44.800781 45.769531 44.804688 45.382813C44.8125 44.996094 44.597656 44.640625 44.25 44.46875L41.5625 42.65625C40.757813 42.121094 39.988281 41.722656 39.09375 41.6875C38.199219 41.652344 37.355469 41.964844 36.34375 42.5C34.453125 43.496094 28.753906 46.496094 27.375 47.1875C25.332031 48.164063 24.058594 48.171875 23 47.875C21.941406 47.578125 21.039063 46.867188 19.90625 46.21875L19.90625 46.25C19.078125 45.742188 15.359375 43.324219 11.75 40.9375C9.945313 39.746094 8.167969 38.546875 6.75 37.59375C5.332031 36.640625 4.234375 35.898438 4 35.71875C3.988281 35.707031 3.980469 35.699219 3.96875 35.6875C3.003906 35 2.445313 34.332031 2.25 33.875C2.054688 33.417969 2.089844 33.226563 2.40625 32.8125C2.582031 32.59375 2.847656 32.363281 3.5 32.34375C4.078125 32.328125 5.007813 32.554688 6.25 33.1875C6.328125 33.289063 6.421875 33.371094 6.53125 33.4375L15.65625 39.53125C15.730469 39.59375 15.816406 39.648438 15.90625 39.6875C16.109375 39.902344 16.3125 40.097656 16.5625 40.25C17.496094 40.808594 18.644531 41 20 41L25.8125 41C28.757813 41 32.28125 39.96875 32.28125 39.96875C32.816406 39.8125 33.125 39.253906 32.96875 38.71875C32.8125 38.183594 32.253906 37.875 31.71875 38.03125C31.71875 38.03125 28.265625 39 25.8125 39L20 39C18.855469 39 18.003906 38.796875 17.5625 38.53125C17.121094 38.265625 17 38.054688 17 37.5C17 36.992188 17.128906 36.773438 17.5625 36.5C17.996094 36.226563 18.816406 36 20 36C21.367188 36 23.132813 35.695313 24.78125 35.28125C24.800781 35.277344 24.824219 35.285156 24.84375 35.28125C25.097656 35.3125 25.355469 35.246094 25.5625 35.09375C26.878906 34.734375 28.015625 34.3125 28.78125 33.875C28.800781 33.867188 28.824219 33.855469 28.84375 33.84375C31.09375 32.4375 30.925781 30 36.59375 30C39.144531 30 39.867188 30.496094 41.4375 31.125C43.933594 32.085938 48.65625 34.40625 48.65625 34.40625C49.15625 34.648438 49.757813 34.4375 50 33.9375C50.242188 33.4375 50.03125 32.835938 49.53125 32.59375C49.53125 32.59375 44.859375 30.320313 42.15625 29.28125C40.726563 28.710938 39.441406 28 36.59375 28C30.300781 28 28.761719 31.496094 27.8125 32.125C27.804688 32.128906 27.789063 32.152344 27.78125 32.15625C27.367188 32.386719 26.289063 32.777344 25.0625 33.125C24.441406 32.722656 19.988281 29.84375 18.375 28.9375C17.292969 28.335938 15.804688 27.855469 14.375 27.96875 Z M 14.53125 29.96875C15.324219 29.90625 16.6875 30.289063 17.40625 30.6875L17.40625 30.65625C18.375 31.199219 20.613281 32.636719 22.34375 33.75C21.441406 33.90625 20.605469 34 20 34C19.492188 34 19.035156 34.027344 18.59375 34.09375L13.875 30.875C13.777344 30.375 13.851563 30.253906 13.90625 30.1875C13.964844 30.117188 14.132813 30 14.53125 29.96875 Z M 8.78125 30.96875C8.789063 30.96875 8.804688 30.96875 8.8125 30.96875C9.410156 30.871094 10.601563 31.085938 11.75 31.6875C11.828125 31.867188 11.960938 32.019531 12.125 32.125L16.3125 34.96875C15.714844 35.414063 15.269531 36.03125 15.09375 36.75L8.25 32.1875C8.175781 31.738281 8.195313 31.429688 8.25 31.3125C8.308594 31.183594 8.378906 31.066406 8.78125 30.96875Z" fill="#5B5B5B" />
</svg>