<svg xmlns="http://www.w3.org/2000/svg" xmlns:xlink="http://www.w3.org/1999/xlink" viewBox="0 0 50 50" fill="#5B5B5B">
  <path d="M25 0C23.964844 0 22.054688 0.246094 20.40625 1.625C20.390625 1.640625 20.351563 1.652344 20.34375 1.65625C19.785156 2.082031 18.414063 3.289063 16.4375 5L9 5C8.96875 5 8.9375 5 8.90625 5C8.390625 5.046875 7.996094 5.480469 8 6L8 12.46875C3.941406 16.058594 0.34375 19.25 0.34375 19.25C0.125 19.4375 0 19.710938 0 20L0 49C0 49.550781 0.449219 50 1 50L49 50C49.550781 50 50 49.550781 50 49L50 20C50 19.710938 49.875 19.4375 49.65625 19.25C49.65625 19.25 46.058594 16.058594 42 12.46875L42 6C42 5.449219 41.550781 5 41 5L33.5 5C31.601563 3.285156 30.214844 2.082031 29.65625 1.65625C29.648438 1.652344 29.609375 1.640625 29.59375 1.625C27.945313 0.246094 26.035156 0 25 0 Z M 25 2C25.75 2 27.207031 2.179688 28.34375 3.15625C28.363281 3.167969 28.386719 3.179688 28.40625 3.1875C28.523438 3.273438 29.726563 4.34375 30.46875 5L19.5 5C20.246094 4.351563 21.476563 3.273438 21.59375 3.1875C21.613281 3.179688 21.636719 3.167969 21.65625 3.15625C22.792969 2.179688 24.25 2 25 2 Z M 10 7L16.4375 7C16.628906 7.058594 16.839844 7.058594 17.03125 7L40 7L40 12.5C39.925781 12.710938 39.925781 12.945313 40 13.15625L40 26.8125L33.6875 31.78125C32.304688 30.695313 29.992188 28.902344 29.6875 28.65625L29.625 28.625C27.894531 27.242188 26.046875 27 25 27C23.878906 27 22.109375 27.34375 20.40625 28.59375L20.375 28.625C20.03125 28.878906 17.601563 30.777344 16.3125 31.78125L10 26.8125L10 13.0625C10.027344 12.929688 10.027344 12.789063 10 12.65625 Z M 24 10L24 16L18 16L18 18L24 18L24 24L26 24L26 18L32 18L32 16L26 16L26 10 Z M 8 15.125L8 25.25L2 20.53125L2 20.4375C2.238281 20.226563 5.148438 17.648438 8 15.125 Z M 42 15.125C44.851563 17.648438 47.761719 20.226563 48 20.4375L48 20.53125L42 25.25 Z M 2 23.09375L14.6875 33.0625C12.859375 34.492188 12.0625 35.09375 9.875 36.8125C5.871094 39.960938 3.164063 42.082031 2 43 Z M 48 23.09375L48 43.03125C46.515625 41.867188 40.574219 37.191406 35.3125 33.0625 Z M 25 29C25.75 29 27.105469 29.171875 28.375 30.1875C29.921875 31.425781 47.496094 45.167969 48 45.5625L48 48L2 48L2 45.5625C2.261719 45.355469 6.449219 42.054688 11.09375 38.40625C15.878906 34.644531 20.960938 30.683594 21.59375 30.21875C22.890625 29.269531 24.320313 29 25 29Z" fill="#5B5B5B" />
</svg>